<svg width="300" height="300" viewBox="0 0 300 300" fill="none" xmlns="http://www.w3.org/2000/svg">
<rect width="300" height="300" fill="white" style="fill:white;fill-opacity:1;"/>
<rect x="80" y="240" width="23" height="15" fill="black" fill-opacity="0.15" style="fill:black;fill-opacity:0.15;"/>
<path d="M80 194L127 194V255H103.003V240H80V194Z" fill="#9F0712" fill-opacity="0.15" stroke="#9F0712" style="fill:#9F0712;fill:color(display-p3 0.6235 0.0275 0.0706);fill-opacity:0.15;stroke:#9F0712;stroke:color(display-p3 0.6235 0.0275 0.0706);stroke-opacity:1;"/>
<path d="M17.2734 29.8281H20.0469V22.2266C19.6823 22.3099 19.3307 22.4193 18.9922 22.5547C18.6589 22.6901 18.3542 22.8542 18.0781 23.0469L16.8594 21.3047C17.3073 21.0234 17.763 20.7865 18.2266 20.5938C18.6953 20.3958 19.1667 20.2396 19.6406 20.125C20.1198 20.0052 20.599 19.9193 21.0781 19.8672C21.5625 19.8151 22.0443 19.7891 22.5234 19.7891L22.5156 19.8047H22.5234V29.8281H25.1719V32H17.2734V29.8281ZM26.3516 27.3594C26.3516 26.7344 26.4792 26.138 26.7344 25.5703C26.9896 24.9974 27.3568 24.4922 27.8359 24.0547C28.3151 23.6172 28.901 23.2682 29.5938 23.0078C30.2917 22.7474 31.0833 22.6172 31.9688 22.6172C32.849 22.6172 33.6406 22.75 34.3438 23.0156C35.0521 23.276 35.651 23.6354 36.1406 24.0938C36.6354 24.5521 37.013 25.0911 37.2734 25.7109C37.5391 26.3307 37.6719 26.9948 37.6719 27.7031C37.6719 27.7917 37.6693 27.888 37.6641 27.9922C37.6641 28.0911 37.6589 28.1823 37.6484 28.2656H28.9297C29.0286 28.5417 29.1875 28.7943 29.4062 29.0234C29.6302 29.2526 29.9089 29.4505 30.2422 29.6172C30.5755 29.7839 30.9609 29.9141 31.3984 30.0078C31.8359 30.0964 32.3203 30.1406 32.8516 30.1406C33.3828 30.1406 33.9115 30.0859 34.4375 29.9766C34.9635 29.862 35.4661 29.7188 35.9453 29.5469L36.7266 31.3125C36.4245 31.4531 36.1172 31.5781 35.8047 31.6875C35.4974 31.7917 35.1745 31.8802 34.8359 31.9531C34.5026 32.0208 34.151 32.0729 33.7812 32.1094C33.4167 32.1458 33.0312 32.1641 32.625 32.1641C31.5885 32.1641 30.6797 32.0391 29.8984 31.7891C29.1172 31.5391 28.4635 31.1979 27.9375 30.7656C27.4115 30.3333 27.0156 29.8255 26.75 29.2422C26.4844 28.6589 26.3516 28.0312 26.3516 27.3594ZM35.2188 26.4609C35.1354 26.2057 35.0052 25.9688 34.8281 25.75C34.6562 25.526 34.4401 25.3333 34.1797 25.1719C33.9193 25.0052 33.6172 24.875 33.2734 24.7812C32.9297 24.6875 32.5521 24.6406 32.1406 24.6406C31.7031 24.6406 31.3047 24.6901 30.9453 24.7891C30.5859 24.888 30.2708 25.0208 30 25.1875C29.7292 25.3542 29.5026 25.5469 29.3203 25.7656C29.1432 25.9844 29.013 26.2161 28.9297 26.4609H35.2188ZM40.1641 22.7812H42.4766V24.1094C42.987 23.7292 43.526 23.401 44.0938 23.125C44.6615 22.849 45.2266 22.638 45.7891 22.4922L46.4688 24.6094C45.5781 24.6979 44.7943 24.8984 44.1172 25.2109C43.4453 25.5182 42.8984 25.9531 42.4766 26.5156V32H40.1641V22.7812Z" fill="#9F0712" style="fill:#9F0712;fill:color(display-p3 0.6235 0.0275 0.0706);fill-opacity:1;"/>
<rect x="80" y="170" width="47" height="24" fill="#9F0712" stroke="#9F0712" style="fill:#9F0712;fill:color(display-p3 0.6235 0.0275 0.0706);fill-opacity:1;stroke:#9F0712;stroke:color(display-p3 0.6235 0.0275 0.0706);stroke-opacity:1;"/>
<path d="M80 133H127V170H80V133Z" fill="#9F0712" fill-opacity="0.15" stroke="#9F0712" style="fill:#9F0712;fill:color(display-p3 0.6235 0.0275 0.0706);fill-opacity:0.15;stroke:#9F0712;stroke:color(display-p3 0.6235 0.0275 0.0706);stroke-opacity:1;"/>
<rect x="79" y="196" width="2" height="7" fill="#F1DADC" style="fill:#F1DADC;fill:color(display-p3 0.9451 0.8549 0.8627);fill-opacity:1;"/>
<rect x="79" y="184" width="2" height="7" fill="#F1DADC" style="fill:#F1DADC;fill:color(display-p3 0.9451 0.8549 0.8627);fill-opacity:1;"/>
<rect x="101" y="169" width="19" height="2" fill="#F1DADC" style="fill:#F1DADC;fill:color(display-p3 0.9451 0.8549 0.8627);fill-opacity:1;"/>
<path d="M112.409 177.305L108.769 175.32C108.687 175.275 108.594 175.251 108.5 175.25H106.25C106.101 175.25 105.958 175.309 105.852 175.415C105.747 175.52 105.688 175.663 105.688 175.812C105.688 176.26 105.51 176.689 105.193 177.006C104.877 177.322 104.448 177.5 104 177.5C103.552 177.5 103.123 177.322 102.807 177.006C102.49 176.689 102.313 176.26 102.313 175.812C102.313 175.663 102.253 175.52 102.148 175.415C102.042 175.309 101.899 175.25 101.75 175.25H99.5C99.4055 175.25 99.3127 175.275 99.23 175.32L95.5913 177.305C95.332 177.442 95.1375 177.676 95.0507 177.956C94.9638 178.236 94.9916 178.54 95.128 178.799L96.4829 181.388C96.5814 181.574 96.7291 181.729 96.9099 181.837C97.0906 181.945 97.2975 182.001 97.5081 182H98.9375V187.625C98.9375 187.923 99.056 188.21 99.267 188.42C99.478 188.631 99.7641 188.75 100.063 188.75H107.938C108.236 188.75 108.522 188.631 108.733 188.42C108.944 188.21 109.063 187.923 109.063 187.625V182H110.493C110.703 182.001 110.91 181.945 111.091 181.837C111.272 181.729 111.419 181.574 111.518 181.388L112.873 178.799C113.009 178.54 113.037 178.236 112.95 177.956C112.863 177.676 112.668 177.441 112.409 177.305ZM97.5081 180.875C97.4977 180.875 97.4874 180.872 97.4792 180.866L96.1313 178.292L98.9375 176.76V180.875H97.5081ZM110.521 180.865C110.517 180.869 110.512 180.871 110.507 180.873C110.502 180.875 110.497 180.875 110.492 180.875H109.063V176.76L111.869 178.292L110.521 180.865Z" fill="#F1DADC" style="fill:#F1DADC;fill:color(display-p3 0.9451 0.8549 0.8627);fill-opacity:1;"/>
<rect x="67" y="157" width="13" height="98" fill="black" fill-opacity="0.15" style="fill:black;fill-opacity:0.15;"/>
<rect x="48" y="133" width="32" height="24" fill="black" fill-opacity="0.15" style="fill:black;fill-opacity:0.15;"/>
</svg>
